<mxfile host="app.diagrams.net" modified="2023-10-31T19:39:52.668Z" agent="Mozilla/5.0 (Macintosh; Intel Mac OS X 10_15_7) AppleWebKit/537.36 (KHTML, like Gecko) Chrome/116.0.0.0 Safari/537.36" version="22.0.8" etag="icjkZCiOeNnwiny3q7P6" type="github">
  <diagram name="Page-1" id="jsqPjtBgdg0GtQxlgzoi">
    <mxGraphModel>
      <root>
        <mxCell id="0" />
        <mxCell id="1" parent="0" />
      </root>
    </mxGraphModel>
  </diagram>
</mxfile>
